<?xml version="1.0" encoding="utf-8"?>
<!-- Generator: Adobe Illustrator 16.0.0, SVG Export Plug-In . SVG Version: 6.00 Build 0)  -->
<!DOCTYPE svg PUBLIC "-//W3C//DTD SVG 1.1//EN" "http://www.w3.org/Graphics/SVG/1.1/DTD/svg11.dtd">
<svg version="1.1" id="Layer_1" xmlns="http://www.w3.org/2000/svg" xmlns:xlink="http://www.w3.org/1999/xlink" x="0px" y="0px"
	 width="1000px" height="1200px" viewBox="0 0 1000 1200" enable-background="new 0 0 1000 1200" xml:space="preserve">
<polyline fill="#FFF200" points="0,680.107 94.777,600 271.795,530.812 286.797,284.788 352.803,92.769 439.812,92.769 
	607.829,92.769 751.844,218.781 751.844,410.801 739.842,584.818 832.852,737.833 847.853,962.855 865.854,1200 0,1200 0,692.829 
	"/>
<polygon fill="#F7941E" points="0,692.829 148.783,600 295.798,557.815 283.796,416.801 313.799,287.788 355.804,131.772 
	553.823,92.769 694.838,197.779 751.844,314.791 688.837,551.814 802.849,710.83 817.85,959.855 847.853,1200 0,1200 "/>
<polygon fill="#ED1C24" points="0,728.832 49.773,665.826 235.792,600 334.802,563.816 313.799,416.801 334.802,299.79 
	355.804,200.779 475.816,116.771 631.831,160.214 706.839,278.787 691.837,458.805 640.832,587.818 754.844,680.107 787,860.846 
	787,1010.86 832.852,1200 0,1200 "/>
</svg>
