<?xml version="1.0" encoding="utf-8"?>
<!-- Generator: Adobe Illustrator 16.0.0, SVG Export Plug-In . SVG Version: 6.00 Build 0)  -->
<!DOCTYPE svg PUBLIC "-//W3C//DTD SVG 1.1//EN" "http://www.w3.org/Graphics/SVG/1.1/DTD/svg11.dtd">
<svg version="1.1" id="Layer_1" xmlns="http://www.w3.org/2000/svg" xmlns:xlink="http://www.w3.org/1999/xlink" x="0px" y="0px"
	 width="865.854px" height="1107.231px" viewBox="0 0 865.854 1107.231" enable-background="new 0 0 865.854 1107.231"
	 xml:space="preserve">
<polyline fill="#FFF200" points="0,587.339 94.777,507.231 271.795,438.044 286.797,192.02 352.803,0 439.812,0 607.829,0 
	751.844,126.013 751.844,318.032 739.842,492.049 832.852,645.064 847.853,870.087 865.854,1107.231 0,1107.231 0,600.061 "/>
<polygon fill="#F7941E" points="0,600.061 148.783,507.231 295.798,465.047 283.796,324.033 313.799,195.02 355.804,39.004 
	553.823,0 694.838,105.011 751.844,222.022 688.837,459.046 802.849,618.062 817.85,867.087 847.853,1107.231 0,1107.231 "/>
<polygon fill="#ED1C24" points="0,636.063 49.773,573.058 235.792,507.231 334.802,471.047 313.799,324.033 334.802,207.021 
	355.804,108.011 475.816,24.002 631.831,67.445 706.839,186.019 691.837,366.037 640.832,495.05 754.844,587.339 787,768.077 
	787,918.092 832.852,1107.231 0,1107.231 "/>
</svg>
